<svg width="24" height="24" viewBox="0 0 24 24" fill="none" xmlns="http://www.w3.org/2000/svg">
<path d="M20.8063 7.125C20.4248 7.12768 20.0597 7.2804 19.79 7.55014C19.5203 7.81987 19.3675 8.18495 19.3649 8.56641V12.533C18.9472 12.2966 18.464 12.2024 17.9881 12.2646C17.5122 12.3268 17.0695 12.5421 16.7267 12.878L14.1434 15.2358C13.8229 15.5279 13.5667 15.8837 13.3914 16.2803C13.216 16.677 13.1253 17.1058 13.125 17.5395V22.125C13.125 22.1742 13.1347 22.223 13.1535 22.2685C13.1724 22.314 13.2 22.3554 13.2348 22.3902C13.2696 22.425 13.311 22.4526 13.3565 22.4715C13.402 22.4903 13.4508 22.5 13.5 22.5H18.2164C18.2657 22.5 18.3144 22.4903 18.36 22.4715C18.4055 22.4526 18.4468 22.425 18.4816 22.3902C18.5164 22.3554 18.5441 22.314 18.5629 22.2685C18.5818 22.223 18.5914 22.1742 18.5914 22.125V20.3974C18.5912 20.017 18.7146 19.6469 18.943 19.3427L21.7471 15.6064C22.0727 15.1728 22.2484 14.6449 22.2477 14.1026V8.56641C22.2473 8.18425 22.0953 7.81788 21.825 7.54766C21.5548 7.27744 21.1884 7.12544 20.8063 7.125ZM21.4977 14.1026C21.4982 14.483 21.3749 14.8532 21.1465 15.1573L18.3425 18.8936C17.7053 19.6379 17.8514 20.8424 17.8414 21.75H13.875V17.5395C13.8752 17.2102 13.944 16.8845 14.0772 16.5833C14.2104 16.2821 14.4049 16.012 14.6484 15.7903L17.2456 13.4191C17.5222 13.1536 17.891 13.0057 18.2745 13.0065C18.6579 13.0074 19.026 13.1568 19.3015 13.4235C19.3229 13.4447 19.3397 13.4699 19.3512 13.4978C19.3626 13.5256 19.3683 13.5554 19.368 13.5855C19.3677 13.6156 19.3613 13.6453 19.3494 13.6729C19.3374 13.7004 19.32 13.7254 19.2982 13.7461L16.437 16.6071C16.369 16.6779 16.3314 16.7725 16.3324 16.8707C16.3333 16.9689 16.3728 17.0628 16.4422 17.1322C16.5116 17.2016 16.6055 17.2411 16.7037 17.242C16.8019 17.243 16.8965 17.2054 16.9673 17.1374L19.8289 14.2762C20.0117 14.0911 20.1144 13.8416 20.1149 13.5815V8.56641C20.1146 8.47514 20.1327 8.38475 20.1682 8.30063C20.2036 8.21652 20.2556 8.1404 20.321 8.07681C20.4184 7.98256 20.5413 7.91888 20.6744 7.89363C20.8076 7.86839 20.9452 7.88268 21.0703 7.93474C21.1955 7.98681 21.3026 8.07437 21.3786 8.18661C21.4545 8.29886 21.4959 8.43089 21.4977 8.56641L21.4977 14.1026Z" fill="white"/>
<path d="M7.28699 12.8911C6.94474 12.55 6.50027 12.3304 6.02145 12.2656C5.54263 12.2009 5.05579 12.2946 4.63526 12.5326V8.56656C4.63093 8.18712 4.47717 7.82469 4.20733 7.5579C3.93749 7.29112 3.57333 7.14149 3.19387 7.14148C2.81441 7.14147 2.45025 7.29109 2.1804 7.55787C1.91055 7.82465 1.75678 8.18708 1.75244 8.56652V14.1027C1.75175 14.6454 1.92773 15.1736 2.25379 15.6074L5.0564 19.3419C5.28524 19.6462 5.40889 20.0167 5.40869 20.3975V22.1251C5.40868 22.1743 5.41837 22.2231 5.43721 22.2686C5.45605 22.3141 5.48368 22.3555 5.5185 22.3903C5.55332 22.4251 5.59467 22.4527 5.64017 22.4716C5.68567 22.4904 5.73444 22.5001 5.78369 22.5001H10.5001C10.5494 22.5001 10.5981 22.4904 10.6436 22.4716C10.6891 22.4527 10.7305 22.4251 10.7653 22.3903C10.8001 22.3555 10.8278 22.3141 10.8466 22.2686C10.8654 22.2231 10.8751 22.1743 10.8751 22.1251V17.5396C10.8748 17.106 10.7842 16.6772 10.6089 16.2806C10.4336 15.8841 10.1775 15.5284 9.85706 15.2363L7.28699 12.8911ZM10.1251 21.7501H6.15869C6.14954 20.8552 6.293 19.6277 5.65698 18.8927L2.85437 15.1583C2.62553 14.854 2.502 14.4834 2.50244 14.1027L2.50247 8.56649C2.50416 8.43046 2.54582 8.29793 2.62225 8.18539C2.69868 8.07285 2.80651 7.98527 2.93233 7.93353C3.05816 7.8818 3.19641 7.8682 3.3299 7.89443C3.46339 7.92067 3.58622 7.98557 3.68311 8.08106C3.74754 8.14435 3.79863 8.21991 3.83335 8.30329C3.86807 8.38666 3.88572 8.47616 3.88526 8.56647V13.5938C3.88749 13.8501 3.99034 14.0953 4.17163 14.2765L7.03282 17.1375C7.1036 17.2055 7.19824 17.243 7.2964 17.2421C7.39457 17.2411 7.48844 17.2017 7.55786 17.1322C7.62728 17.0628 7.66671 16.969 7.6677 16.8708C7.66868 16.7726 7.63113 16.678 7.56311 16.6072L4.70227 13.7464C4.68075 13.7247 4.66374 13.699 4.65224 13.6707C4.64074 13.6424 4.63496 13.6121 4.63526 13.5816C4.63498 13.5513 4.64084 13.5213 4.65249 13.4934C4.66413 13.4655 4.68132 13.4402 4.70301 13.4192C4.83913 13.2838 5.00068 13.1768 5.17835 13.1042C5.35602 13.0315 5.5463 12.9948 5.73824 12.996C5.93018 12.9972 6.11998 13.0363 6.29673 13.1112C6.47347 13.1861 6.63366 13.2951 6.76807 13.4322L9.35206 15.7907C9.59545 16.0125 9.78991 16.2825 9.92303 16.5836C10.0561 16.8848 10.125 17.2103 10.1251 17.5396V21.7501Z" fill="white"/>
<path d="M14.329 6.25733L13.1487 6.15646L12.6777 5.05767C12.6193 4.92673 12.5242 4.81553 12.4039 4.73749C12.2836 4.65945 12.1433 4.61792 11.9999 4.61792C11.8565 4.61792 11.7162 4.65944 11.5959 4.73747C11.4756 4.81551 11.3805 4.92671 11.322 5.05764L10.8613 6.14876L9.67077 6.25735C9.52706 6.27054 9.39038 6.32559 9.27764 6.41569C9.16491 6.50578 9.08108 6.62697 9.03652 6.76423C8.99197 6.90149 8.98866 7.04881 9.02699 7.18794C9.06532 7.32706 9.14362 7.45189 9.25219 7.54697L10.1476 8.32224L9.88317 9.48661C9.85103 9.62736 9.86092 9.77445 9.91161 9.90962C9.9623 10.0448 10.0516 10.1621 10.1683 10.247C10.2851 10.332 10.4242 10.3807 10.5684 10.3873C10.7126 10.3939 10.8556 10.358 10.9796 10.284L11.9998 9.67597C12.2533 9.79526 13.1065 10.431 13.3977 10.3882C13.5082 10.3873 13.617 10.3617 13.7163 10.3134C13.8157 10.265 13.9029 10.1951 13.9719 10.1088C14.0408 10.0225 14.0895 9.92185 14.1146 9.81428C14.1397 9.70671 14.1405 9.5949 14.1169 9.48698L13.8478 8.33433L14.7476 7.54698C14.8561 7.4519 14.9344 7.32707 14.9728 7.18794C15.0111 7.04882 15.0078 6.9015 14.9632 6.76424C14.9187 6.62697 14.8348 6.50579 14.7221 6.41569C14.6094 6.3256 14.4727 6.27053 14.329 6.25733ZM13.4037 9.63897C11.8426 8.72557 12.2094 8.64752 10.6145 9.65322C11.0172 7.86421 11.1599 8.1941 9.73884 7.00439C11.5691 6.83189 11.2919 7.07651 11.9885 5.35317C12.7148 7.01557 12.3742 6.85684 14.253 6.98255C12.9253 8.17339 12.9278 7.78942 13.4037 9.63897Z" fill="white"/>
<path d="M17.6773 8.57977L17.6238 3.74853C17.6229 3.67196 17.5986 3.5975 17.5541 3.53515C17.5097 3.4728 17.4472 3.42554 17.3751 3.39972L12.1266 1.52197C12.0449 1.49268 11.9556 1.49268 11.8739 1.52197L6.62539 3.39972C6.5533 3.42554 6.49083 3.4728 6.44638 3.53515C6.40194 3.5975 6.37763 3.67196 6.37673 3.74853L6.32324 8.58401C6.33097 11.7119 9.19589 13.4943 12.0003 14.25C14.8074 13.4919 17.6697 11.7132 17.6773 8.57977ZM12.0003 13.4852C10.6105 13.1067 9.33191 12.3999 8.27223 11.4243C7.89044 11.0576 7.58726 10.6171 7.38114 10.1295C7.17502 9.64195 7.07026 9.11754 7.07326 8.58819L7.1238 4.01788L12.0003 2.27325L16.8767 4.01788L16.9273 8.58398C16.9307 9.11401 16.8261 9.63919 16.62 10.1275C16.4139 10.6158 16.1105 11.0571 15.7283 11.4243C14.6686 12.3999 13.3901 13.1067 12.0003 13.4852Z" fill="white"/>
</svg>
